<svg width="99" height="56" viewBox="0 0 99 56" fill="none" xmlns="http://www.w3.org/2000/svg">
  <g clip-path="url(#clip0_11_2)">
    <path fill="#FFB500" d="M38.926 19.201H45.782H44.513V20.297H38.925C38.622 20.297 38.377 20.052 38.377 19.749C38.378 19.446 38.623 19.201 38.926 19.201ZM52.583 21.317L51.053 17.142H47.413L45.882 21.317H49.277H52.583ZM43.607 36.546C43.59 36.498 43.576 36.452 43.563 36.404H8.183C7.578 36.404 7.087 36.098 7.087 35.725C7.087 35.351 7.577 35.048 8.183 35.048H15.745L12.24 17.143H1.097C0.491 17.143 0 16.84 0 16.466C0 16.091 0.491 15.789 1.097 15.789H48.534L48.678 8.602C48.678 7.357 48.931 6.31 49.278 6C49.624 6.31 49.878 7.357 49.878 8.602L50.02 15.789H97.588C98.192 15.789 98.684 16.092 98.684 16.466C98.684 16.84 98.192 17.142 97.588 17.142H87.95L84.445 35.049H90.41C91.016 35.049 91.508 35.352 91.508 35.726C91.508 36.099 91.017 36.405 90.41 36.405H54.989C54.977 36.444 54.965 36.486 54.953 36.526C54.779 37.182 54.174 37.709 53.392 37.885L58.56 45.979H59.453V43.683C59.453 43.229 59.822 42.859 60.275 42.859H60.515C60.97 42.859 61.338 43.229 61.338 43.683V49.541C61.338 49.997 60.97 50.365 60.515 50.365H60.275C59.822 50.365 59.453 49.997 59.453 49.541V47.076H57.961L52.133 37.949H46.405L40.577 47.076H39.085V49.541C39.085 49.997 38.716 50.365 38.262 50.365H38.023C37.568 50.365 37.2 49.997 37.2 49.541V43.683C37.2 43.229 37.568 42.859 38.023 42.859H38.262C38.716 42.859 39.085 43.229 39.085 43.683V45.979H39.976L45.148 37.883C44.382 37.705 43.786 37.19 43.607 36.546ZM38.377 19.749C38.377 19.446 38.623 19.201 38.926 19.201H45.782L46.538 17.143H13.078L16.582 35.05H43.428L42.88 28.138C44.558 28.054 45.989 27.898 46.968 27.691C47.39 28.537 48.265 29.12 49.277 29.12C50.28 29.12 51.149 28.547 51.577 27.711C52.567 27.91 54.001 28.063 55.673 28.145L55.126 35.051H83.608L87.11 17.144H51.93L52.682 19.202H53.649H59.551C59.853 19.202 60.099 19.447 60.099 19.749C60.099 20.053 59.853 20.298 59.551 20.298H53.083L53.459 21.319H53.843C55.057 21.319 56.035 22.301 56.035 23.512L55.92 24.997C54.161 25.076 52.648 25.23 51.608 25.437C51.195 24.565 50.306 23.962 49.277 23.962C48.239 23.962 47.345 24.573 46.937 25.456C45.912 25.244 44.399 25.083 42.632 25.001L42.514 23.511C42.514 22.3 43.496 21.318 44.707 21.318H45.006L45.38 20.297H44.513H38.925C38.622 20.297 38.377 20.052 38.377 19.749ZM58.55 25.487C63.082 25.487 64.514 25.974 64.514 26.575C64.514 27.176 63.082 27.662 58.55 27.662C55.36 27.662 52.594 27.421 51.237 27.069C51.006 27.933 50.215 28.569 49.277 28.569C48.33 28.569 47.534 27.922 47.308 27.044C45.988 27.41 43.167 27.663 39.901 27.663C35.368 27.663 33.937 27.176 33.937 26.576C33.937 25.975 35.368 25.488 39.901 25.488C43.154 25.488 45.964 25.739 47.293 26.102C47.493 25.191 48.305 24.509 49.277 24.509C50.239 24.509 51.046 25.179 51.254 26.077C52.618 25.727 55.373 25.487 58.55 25.487ZM48.521 26.54C48.521 26.957 48.86 27.295 49.277 27.295C49.693 27.295 50.032 26.957 50.032 26.54C50.032 26.122 49.693 25.785 49.277 25.785C48.859 25.784 48.521 26.122 48.521 26.54Z" />
  </g>
  <defs>
    <clipPath id="clip0_11_2">
      <rect width="98.682" height="55.4562" fill="white"/>
    </clipPath>
  </defs>
</svg>
